<?xml version="1.0" encoding="utf-8"?>
<!-- Generator: Adobe Illustrator 18.0.0, SVG Export Plug-In . SVG Version: 6.00 Build 0)  -->
<!DOCTYPE svg PUBLIC "-//W3C//DTD SVG 1.1//EN" "http://www.w3.org/Graphics/SVG/1.1/DTD/svg11.dtd">
<svg version="1.1" id="Layer_1" xmlns="http://www.w3.org/2000/svg" xmlns:xlink="http://www.w3.org/1999/xlink" x="0px" y="0px"
	 viewBox="0 0 64 64" enable-background="new 0 0 64 64" xml:space="preserve">
<g id="Left">
	<g>
		<path fill-rule="evenodd" clip-rule="evenodd" fill="#8B8B8B" d="M32,0C14.3,0,0,14.3,0,32c0,17.7,14.3,32,32,32
			c17.7,0,32-14.3,32-32C64,14.3,49.7,0,32,0z M32,60.1C16.6,60.1,4,47.4,4,32S16.6,4,32,4c15.4,0,28,12.6,28,28S47.4,60.1,32,60.1z
			 M46,30H23.5l7.2-7.2c0.8-0.8,0.8-2,0-2.8c-0.8-0.8-2-0.8-2.8,0L16.1,32l11.8,12.1c0.4,0.4,0.9,0.6,1.4,0.6c0.5,0,1-0.2,1.4-0.6
			c0.8-0.8,0.8-2,0-2.8L23.4,34H46c1.1,0,2-0.9,2-2C48,30.9,47.1,30,46,30z"/>
	</g>
</g>
</svg>
