<?xml version="1.0" encoding="utf-8"?>
<!-- Generator: Adobe Illustrator 18.0.0, SVG Export Plug-In . SVG Version: 6.00 Build 0)  -->
<!DOCTYPE svg PUBLIC "-//W3C//DTD SVG 1.1//EN" "http://www.w3.org/Graphics/SVG/1.1/DTD/svg11.dtd">
<svg version="1.1" id="Layer_1" xmlns="http://www.w3.org/2000/svg" xmlns:xlink="http://www.w3.org/1999/xlink" x="0px" y="0px"
	 viewBox="0 0 103 103" enable-background="new 0 0 103 103" xml:space="preserve">
<g>
	<defs>
		<rect id="SVGID_1_" width="103" height="103"/>
	</defs>
	<clipPath id="SVGID_2_">
		<use xlink:href="#SVGID_1_"  overflow="visible"/>
	</clipPath>
	
		<circle clip-path="url(#SVGID_2_)" fill="none" stroke="#8BC540" stroke-width="3" stroke-miterlimit="10" cx="51.5" cy="51.5" r="50"/>
	<path clip-path="url(#SVGID_2_)" fill="#8BC540" d="M60.1,39.8h5.8V34h-5.8V39.8z M51.3,39.8h5.8V34h-5.8V39.8z M60.1,48.7h5.8
		v-5.8h-5.8V48.7z M51.3,48.7h5.8v-5.8h-5.8V48.7z M35.3,48.7h5.8v-5.8h-5.8V48.7z M60.1,57.6h5.8v-5.8h-5.8V57.6z M51.3,57.6h5.8
		v-5.8h-5.8V57.6z M60.1,66.5h5.8v-5.8h-5.8V66.5z M51.3,66.5h5.8v-5.8h-5.8V66.5z M35.3,57.6h5.8v-5.8h-5.8V57.6z M35.3,66.5h5.8
		v-5.8h-5.8V66.5z M72,70.4V27.5H45.2v8.4H28.8v34.5h-8.5v2.3h60.2v-2.3H72z M31.1,38.2h14.1v32.2H31.1V38.2z M47.5,29.8h22.2v40.6
		H47.5V29.8z"/>
</g>
</svg>
