<?xml version="1.0" encoding="utf-8"?>
<!-- Generator: Adobe Illustrator 19.2.1, SVG Export Plug-In . SVG Version: 6.00 Build 0)  -->
<svg version="1.1" id="Layer_1" xmlns="http://www.w3.org/2000/svg" xmlns:xlink="http://www.w3.org/1999/xlink" x="0px" y="0px"
	 viewBox="0 0 100 100" style="enable-background:new 0 0 100 100;" xml:space="preserve">
<style type="text/css">
	.st0{fill:#363E55;}
</style>
<path class="st0" d="M98.7,77.5L73.4,58.9c-1.6-1.2-3.2-0.8-4.4,0.4l-2,2l-6.4,6.3c-2,2-5.2,2-7.6,0l-23.7-21
	c-1.2-0.8-1.6-2.4-1.6-4c0-1.6,0.4-2.8,1.6-4l5.6-5.5l1.2-1.2c1.2-1.2,1.2-3.2,0.4-4.4L19.2,3.2C18.8,2.8,18,2,16.8,2
	c-0.8,0-2,0-2.8,0.8l0,0L4,10.7C0,13.9-0.8,19,0.8,23.7C14,58.6,42.5,84.7,78.6,96.5c4,1.2,8.8,0,11.6-3.2c2-2.4,6.8-8.3,7.6-9.1
	c0.4-0.4,0.8-1.2,1.2-1.6c0.8-0.8,0.8-1.6,0.8-2.8C100.3,78.7,99.5,77.9,98.7,77.5z"/>
</svg>
