<svg xmlns="http://www.w3.org/2000/svg" xmlns:xlink="http://www.w3.org/1999/xlink" preserveAspectRatio="xMidYMid" width="100" height="100" viewBox="0 0 100 100">
  <defs>
    <style>
      .cls-1 {
        fill: #8cc349;
        fill-rule: evenodd;
      }
    </style>
  </defs>
  <path d="M12.493,50.000 C12.493,29.286 29.281,12.496 49.991,12.496 C70.700,12.496 87.488,29.286 87.488,50.000 C87.488,70.715 70.700,87.505 49.991,87.505 C29.281,87.505 12.493,70.715 12.493,50.000 ZM-0.006,50.000 C-0.006,77.619 22.377,100.006 49.991,100.006 C77.604,100.006 99.987,77.619 99.987,50.000 C99.987,22.381 77.604,-0.007 49.991,-0.007 C22.377,-0.007 -0.006,22.381 -0.006,50.000 ZM46.657,26.664 L46.657,46.665 L46.657,53.333 L53.324,53.333 L66.656,53.333 L66.656,46.665 L53.324,46.665 L53.324,26.664 L46.657,26.664 Z" class="cls-1"/>
</svg>
