<svg xmlns="http://www.w3.org/2000/svg" xmlns:xlink="http://www.w3.org/1999/xlink" preserveAspectRatio="xMidYMid" width="100" height="100" viewBox="0 0 100 100">
  <defs>
    <style>
      .cls-1 {
        fill: #8cc349;
        fill-rule: evenodd;
      }
    </style>
  </defs>
  <path d="M98.702,77.538 L73.421,58.949 C71.815,57.763 70.211,58.158 69.007,59.344 L67.000,61.322 L60.579,67.650 C58.573,69.628 55.362,69.628 52.955,67.650 L29.278,46.688 C28.074,45.897 27.673,44.315 27.673,42.733 C27.673,41.151 28.074,39.964 29.278,38.778 L34.896,33.241 L36.100,32.054 C37.304,30.868 37.304,28.890 36.501,27.703 L19.245,3.181 C18.845,2.786 18.042,1.995 16.838,1.995 C16.035,1.995 14.831,1.995 14.029,2.786 L14.029,2.786 L3.996,10.696 C-0.017,13.860 -0.819,19.002 0.786,23.749 C14.029,58.553 42.521,84.657 78.638,96.523 C82.651,97.709 87.466,96.523 90.275,93.359 C92.281,90.986 97.098,85.053 97.900,84.262 C98.301,83.867 98.702,83.075 99.104,82.680 C99.906,81.889 99.906,81.097 99.906,79.911 C100.308,78.725 99.505,77.933 98.702,77.538 Z" class="cls-1"/>
</svg>
