<?xml version="1.0" encoding="utf-8"?>
<!-- Generator: Adobe Illustrator 19.0.1, SVG Export Plug-In . SVG Version: 6.00 Build 0)  -->
<svg version="1.1" xmlns="http://www.w3.org/2000/svg" xmlns:xlink="http://www.w3.org/1999/xlink" x="0px" y="0px"
	 viewBox="0 0 424.9 187.6" style="enable-background:new 0 0 424.9 187.6;" xml:space="preserve">
<style type="text/css">
	.st0{fill-rule:evenodd;clip-rule:evenodd;fill:none;stroke:#8AC53F;stroke-width:3;stroke-miterlimit:10;}
	.st1{fill:#8AC53F;}
	.st2{fill-rule:evenodd;clip-rule:evenodd;fill:#FFFFFF;}
	.st3{fill-rule:evenodd;clip-rule:evenodd;fill:#89C540;}
</style>
<g id="Layer_2">
</g>
<g id="Layer_1">
	<g>
		<g>
			<path class="st2" d="M137.7,101.7c26,0,40.6-19,40.6-42.9c0-23.9-14.7-42.9-40.6-42.9c-26,0-40.6,19-40.6,42.9
				C97.1,82.6,111.7,101.7,137.7,101.7z M137.7,34.3c13.8,0,19.2,12.2,19.2,24.5c0,12.2-5.3,24.5-19.2,24.5
				c-13.9,0-19.2-12.2-19.2-24.5C118.5,46.5,123.9,34.3,137.7,34.3z"/>
			<path class="st2" d="M204.6,69.9h16.3c10,0,11.4,8.5,12,16.9c0.2,2.3,0.6,10.4,2.4,13.2h21.2c-2.9-3-3.2-15.1-3.5-18.6
				c-0.7-7.8-3.2-17.7-12-19.7v-0.2c8.7-3.3,12.9-11.8,12.9-20.7c0-16.6-14.3-23.2-28.9-23.2h-42v82.4h21.5V69.9z M204.6,34.7h17.1
				c6,0,10.9,2.8,10.9,8.9c0,6.2-3.5,9.7-9.9,9.7h-18V34.7z"/>
			<polygon class="st2" points="305.8,72.5 305.6,72.5 291.4,17.6 259.8,17.6 259.8,99.9 280,99.9 280,37.4 280.2,37.4 297.5,99.9 
				313.9,99.9 331.2,37.4 331.4,37.4 331.4,99.9 351.6,99.9 351.6,17.6 320,17.6 			"/>
			<path class="st2" d="M76.3,156.7h15c-1.2,7.5-8.3,12.5-18.9,12.5c-13.9,0-19.2-12.2-19.2-24.5c0-12.2,5.3-24.5,19.2-24.5
				c8.7,0,15.6,4.3,16.3,11.3h21.5c-2-20.7-20.2-29.8-37.3-29.8c-24.9,0-41.1,19-41.1,42.9c0,23.9,16.2,42.9,41.1,42.9
				c6.6,0,14.8-2.1,20.5-7.9v6.1h3.7H110h0.9v-45.1H76.3V156.7z"/>
			<path class="st2" d="M175.8,147.5v-0.2c8.7-3.3,12.9-11.8,12.9-20.7c0-16.6-14.3-23.2-28.8-23.2h-42v82.4h21.5v-30h16.3
				c10,0,11.4,8.5,12,16.9c0.2,2.3,0.6,10.4,2.4,13.2h21.2c-2.9-3-3.2-15.1-3.5-18.6C187.1,159.4,184.5,149.6,175.8,147.5z
				 M157.3,139.2h-18v-18.6h17.1c6,0,10.8,2.8,10.8,8.9C167.2,135.8,163.8,139.2,157.3,139.2z"/>
			<path class="st2" d="M231.8,101.7c-26,0-40.6,19-40.6,42.9c0,23.9,14.7,42.9,40.6,42.9c26,0,40.6-19,40.6-42.9
				C272.5,120.8,257.8,101.7,231.8,101.7z M231.8,169.1c-13.8,0-19.2-12.2-19.2-24.5c0-12.2,5.3-24.5,19.2-24.5
				c13.8,0,19.2,12.2,19.2,24.5C251,156.9,245.7,169.1,231.8,169.1z"/>
			<path class="st2" d="M327,153.1c0,10.6-3.9,16-14.4,16c-10.5,0-14.4-5.4-14.4-16v-49.6h-21.5v48.4c0,23.9,11,35.8,35.9,35.8
				c24.9,0,35.9-11.9,35.9-35.8v-48.4H327V153.1z"/>
			<path class="st2" d="M395.1,103.5H356v82.4h21.5v-27.5h17.7c18.1,0,29.8-8,29.8-28.4C424.9,110.5,410.4,103.5,395.1,103.5z
				 M391.9,141.8h-14.4v-21.1h14.4c6.6,0,11.5,3.1,11.5,10.9C403.4,139,398.6,141.8,391.9,141.8z"/>
			<path class="st2" d="M43.1,29.2v69.2h21.5V58.6H92V42H64.6v-9.9c0.2-0.7,0.4-1.8,0.7-3.4c1.4-8.2,7.9-9.4,16.1-9
				c8.2,0.4,8,3.9,9,4.8c1.1,0.9,9.6,1.2,9.6,1.2l1-5.5c1.9-11-0.7-18.6-0.7-18.6s-6.8-1.2-8.5-0.6c-1.7,0.6-4.4,5.4-10.3,5.4
				C75.5,6.4,68.2,3,68.2,3C26.5-10.5,0,25.6,0,25.6l3.6-0.4c0.4-0.3,0.9-0.6,1.3-0.9c1.8-1.2,3.5-2.2,5.2-3.2
				c7.7-4.4,14.6-7,20.4-7C36.3,15,43.1,18.4,43.1,29.2z"/>
		</g>
		<g>
			<polygon class="st3" points="367.8,94.7 367.8,94.7 359.5,81.3 356.1,81.3 356.1,99.5 359.2,99.5 359.2,86.2 359.2,86.2 
				367.5,99.5 370.9,99.5 370.9,81.3 367.8,81.3 			"/>
			<path class="st3" d="M384.8,89.6c-0.9-0.3-5-1.3-5.2-1.4c-1.3-0.4-2.2-1.1-2.2-2.3c0-1.8,1.9-2.4,3.3-2.4c2.2,0,3.8,0.9,3.9,3.2
				h3.2c0-3.8-3.2-5.8-7-5.8c-3.3,0-6.6,1.7-6.6,5.3c0,1.9,0.9,3.8,4,4.6c2.5,0.7,4.2,1,5.4,1.5c0.7,0.3,1.5,0.8,1.5,2.2
				c0,1.4-1,2.7-3.8,2.7c-2.5,0-4.6-1.1-4.6-3.9h-3.2c0.1,4.5,3.4,6.5,7.6,6.5c3.6,0,7.2-1.6,7.2-5.7
				C388.4,92.4,387.2,90.3,384.8,89.6z"/>
			<polygon class="st3" points="409.9,81.3 406.5,95.2 406.4,95.2 402.9,81.3 399.6,81.3 395.9,95.2 395.9,95.2 392.6,81.3 
				389.4,81.3 394.1,99.5 397.4,99.5 401.1,85.6 401.2,85.6 404.8,99.5 408.1,99.5 413.1,81.3 			"/>
		</g>
	</g>
</g>
</svg>
