<?xml version="1.0" encoding="utf-8"?>
<!-- Generator: Adobe Illustrator 18.0.0, SVG Export Plug-In . SVG Version: 6.00 Build 0)  -->
<!DOCTYPE svg PUBLIC "-//W3C//DTD SVG 1.1//EN" "http://www.w3.org/Graphics/SVG/1.1/DTD/svg11.dtd">
<svg version="1.1" id="Layer_1" xmlns="http://www.w3.org/2000/svg" xmlns:xlink="http://www.w3.org/1999/xlink" x="0px" y="0px"
	 viewBox="0 260.9 612 270.4" enable-background="new 0 260.9 612 270.4" xml:space="preserve">
<g id="Layer_2">
</g>
<g>
	<path fill="#6D7072" d="M198.3,407.4c37.4,0,58.5-27.4,58.5-61.8s-21.2-61.8-58.5-61.8c-37.4,0-58.5,27.4-58.5,61.8
		C139.9,379.9,160.9,407.4,198.3,407.4z M198.3,310.3c19.9,0,27.7,17.6,27.7,35.3c0,17.6-7.6,35.3-27.7,35.3s-27.7-17.6-27.7-35.3
		C170.7,327.9,178.5,310.3,198.3,310.3z"/>
	<path fill="#6D7072" d="M294.7,361.6h23.5c14.4,0,16.4,12.2,17.3,24.3c0.3,3.3,0.9,15,3.5,19h30.5c-4.2-4.3-4.6-21.7-5-26.8
		c-1-11.2-4.6-25.5-17.3-28.4v-0.3c12.5-4.8,18.6-17,18.6-29.8c0-23.9-20.6-33.4-41.6-33.4h-60.5v118.7h31V361.6L294.7,361.6
		L294.7,361.6z M294.7,310.9h24.6c8.6,0,15.7,4,15.7,12.8c0,8.9-5,14-14.3,14h-25.9v-26.8H294.7z"/>
	<polygon fill="#6D7072" points="440.5,365.3 440.2,365.3 419.7,286.2 374.2,286.2 374.2,404.8 403.3,404.8 403.3,314.8 
		403.6,314.8 428.5,404.8 452.1,404.8 477,314.8 477.3,314.8 477.3,404.8 506.4,404.8 506.4,286.2 460.9,286.2 	"/>
	<path fill="#6D7072" d="M109.9,486.6h21.6c-1.7,10.8-12,18-27.2,18c-20,0-27.7-17.6-27.7-35.3c0-17.6,7.6-35.3,27.7-35.3
		c12.5,0,22.5,6.2,23.5,16.3h31c-2.9-29.8-29.1-42.9-53.7-42.9c-35.9,0-59.2,27.4-59.2,61.8S69.1,531,105,531
		c9.5,0,21.3-3,29.5-11.4v8.8h5.3h18.6h1.3v-65h-49.8C109.9,463.4,109.9,486.6,109.9,486.6z"/>
	<path fill="#6D7072" d="M253.2,473.3V473c12.5-4.8,18.6-17,18.6-29.8c0-23.9-20.6-33.4-41.5-33.4h-60.5v118.7h31v-43.2h23.5
		c14.4,0,16.4,12.2,17.3,24.3c0.3,3.3,0.9,15,3.5,19h30.5c-4.2-4.3-4.6-21.7-5-26.8C269.5,490.5,265.7,476.4,253.2,473.3z
		 M226.6,461.4h-25.9v-26.8h24.6c8.6,0,15.6,4,15.6,12.8C240.8,456.5,235.9,461.4,226.6,461.4z"/>
	<path fill="#6D7072" d="M333.9,407.4c-37.4,0-58.5,27.4-58.5,61.8s21.2,61.8,58.5,61.8c37.4,0,58.5-27.4,58.5-61.8
		C392.5,434.9,371.3,407.4,333.9,407.4z M333.9,504.5c-19.9,0-27.7-17.6-27.7-35.3c0-17.6,7.6-35.3,27.7-35.3
		c19.9,0,27.7,17.6,27.7,35.3S353.9,504.5,333.9,504.5z"/>
	<path fill="#6D7072" d="M471,481.4c0,15.3-5.6,23-20.7,23s-20.7-7.8-20.7-23V410h-31v69.7c0,34.4,15.8,51.6,51.7,51.6
		s51.7-17.1,51.7-51.6V410h-31V481.4z"/>
	<path fill="#6D7072" d="M569.1,410h-56.3v118.7h31V489h25.5c26.1,0,42.9-11.5,42.9-40.9C612,420.1,591.1,410,569.1,410z
		 M564.5,465.1h-20.7v-30.4h20.7c9.5,0,16.6,4.5,16.6,15.7C581,461.1,574.1,465.1,564.5,465.1z"/>
	<path fill="#6D7072" d="M62.1,303v99.7h31v-57.3h39.5v-23.9H93v-14.3c0.3-1,0.6-2.6,1-4.9c2-11.8,11.4-13.5,23.2-13
		c11.8,0.6,11.5,5.6,13,6.9c1.6,1.3,13.8,1.7,13.8,1.7l1.4-7.9c2.7-15.8-1-26.8-1-26.8s-9.8-1.7-12.2-0.9c-2.4,0.9-6.3,7.8-14.8,7.8
		c-8.6,0-19.2-4.9-19.2-4.9C38.2,245.8,0,297.8,0,297.8l5.2-0.6c0.6-0.4,1.3-0.9,1.9-1.3c2.6-1.7,5-3.2,7.5-4.6
		c11.1-6.3,21-10.1,29.4-10.1C52.3,282.5,62.1,287.4,62.1,303z"/>
</g>
<g>
	<polygon fill="#89C540" points="529.8,397.3 529.8,397.3 517.8,378 512.9,378 512.9,404.2 517.4,404.2 517.4,385.1 517.4,385.1 
		529.3,404.2 534.2,404.2 534.2,378 529.8,378 	"/>
	<path fill="#89C540" d="M554.2,390c-1.3-0.4-7.2-1.9-7.5-2c-1.9-0.6-3.2-1.6-3.2-3.3c0-2.6,2.7-3.5,4.8-3.5c3.2,0,5.5,1.3,5.6,4.6
		h4.6c0-5.5-4.6-8.4-10.1-8.4c-4.8,0-9.5,2.4-9.5,7.6c0,2.7,1.3,5.5,5.8,6.6c3.6,1,6,1.4,7.8,2.2c1,0.4,2.2,1.2,2.2,3.2
		s-1.4,3.9-5.5,3.9c-3.6,0-6.6-1.6-6.6-5.6H538c0.1,6.5,4.9,9.4,10.9,9.4c5.2,0,10.4-2.3,10.4-8.2C559.4,394,557.7,391,554.2,390z"
		/>
	<polygon fill="#89C540" points="590.4,378 585.5,398 585.4,398 580.3,378 575.6,378 570.2,398 570.2,398 565.5,378 560.9,378 
		567.6,404.2 572.4,404.2 577.7,384.2 577.9,384.2 583,404.2 587.8,404.2 595,378 	"/>
</g>
</svg>
