<?xml version="1.0" encoding="utf-8"?>
<!-- Generator: Adobe Illustrator 18.0.0, SVG Export Plug-In . SVG Version: 6.00 Build 0)  -->
<!DOCTYPE svg PUBLIC "-//W3C//DTD SVG 1.1//EN" "http://www.w3.org/Graphics/SVG/1.1/DTD/svg11.dtd">
<svg version="1.1" id="Layer_1" xmlns="http://www.w3.org/2000/svg" xmlns:xlink="http://www.w3.org/1999/xlink" x="0px" y="0px"
	 viewBox="0 0 72.5 72.5" enable-background="new 0 0 72.5 72.5" xml:space="preserve">
<circle fill="#E4EAED" cx="36.3" cy="36.2" r="36.3"/>
<g>
	<path fill-rule="evenodd" clip-rule="evenodd" fill="#778589" d="M24.8,19.2c-2.4,0-4,1.6-4,3.7c0,2,1.5,3.7,3.9,3.7h0
		c2.5,0,4-1.6,4-3.7C28.7,20.8,27.3,19.2,24.8,19.2z"/>
	<rect x="21.3" y="29.4" fill-rule="evenodd" clip-rule="evenodd" fill="#778589" width="7.1" height="21.3"/>
	<path fill-rule="evenodd" clip-rule="evenodd" fill="#778589" d="M45.7,28.9c-3.8,0-5.4,2.1-6.4,3.5v0.1h0c0,0,0,0,0-0.1v-3h-7.1
		c0.1,2,0,21.3,0,21.3h7.1V38.8c0-0.6,0-1.3,0.2-1.7c0.5-1.3,1.7-2.6,3.6-2.6c2.6,0,3.6,1.9,3.6,4.8v11.4h7.1V38.5
		C53.8,32,50.3,28.9,45.7,28.9z"/>
</g>
</svg>
